<svg width="100%" viewBox="0 0 900 670" xmlns="http://www.w3.org/2000/svg" font-family="system-ui,-apple-system,BlinkMacSystemFont,'Segoe UI',sans-serif">
<defs>
  <marker id="a" viewBox="0 0 10 10" refX="8" refY="5" markerWidth="6" markerHeight="6" orient="auto-start-reverse">
    <path d="M2 1L8 5L2 9" fill="none" stroke="#737270" stroke-width="1.5" stroke-linecap="round" stroke-linejoin="round"/>
  </marker>
  <marker id="ag" viewBox="0 0 10 10" refX="8" refY="5" markerWidth="6" markerHeight="6" orient="auto-start-reverse">
    <path d="M2 1L8 5L2 9" fill="none" stroke="#639922" stroke-width="1.5" stroke-linecap="round" stroke-linejoin="round"/>
  </marker>
</defs>

<!-- ══ Row 1: Clients ══ -->

<rect x="45" y="28" width="190" height="60" rx="8" fill="#e8f5e9" stroke="#2e7d32" stroke-width="0.5"/>
<text x="140" y="52" text-anchor="middle" font-size="14" font-weight="600" fill="#1b5e20">Android app</text>
<text x="140" y="70" text-anchor="middle" font-size="11.5" fill="#2e7d32">Capacitor · camera · GPS</text>

<rect x="265" y="28" width="190" height="60" rx="8" fill="#e6f1fb" stroke="#185fa5" stroke-width="0.5"/>
<text x="360" y="52" text-anchor="middle" font-size="14" font-weight="600" fill="#0c447c">Web client</text>
<text x="360" y="70" text-anchor="middle" font-size="11.5" fill="#185fa5">React 19 · Vercel · i18n</text>

<rect x="665" y="28" width="190" height="60" rx="8" fill="#faeee7" stroke="#993c1d" stroke-width="0.5"/>
<text x="760" y="52" text-anchor="middle" font-size="14" font-weight="600" fill="#712b13">IoT sensors</text>
<text x="760" y="70" text-anchor="middle" font-size="11.5" fill="#993c1d">HTTP POST · simulator</text>

<!-- Clients → Tunnel -->
<line x1="140" y1="88" x2="180" y2="118" stroke="#737270" stroke-width="1.5" marker-end="url(#a)"/>
<line x1="360" y1="88" x2="320" y2="118" stroke="#737270" stroke-width="1.5" marker-end="url(#a)"/>
<text x="368" y="108" font-size="11" fill="#3d3d3d">REST + WS</text>

<!-- ══ Row 2: Cloudflare Tunnel ══ -->

<rect x="95" y="118" width="310" height="50" rx="8" fill="#f0eee8" stroke="#5f5e5a" stroke-width="0.5"/>
<text x="250" y="139" text-anchor="middle" font-size="14" font-weight="600" fill="#333">Cloudflare Tunnel</text>
<text x="250" y="157" text-anchor="middle" font-size="11.5" fill="#555">HTTPS · REST + WebSocket</text>

<!-- Tunnel → Express -->
<line x1="235" y1="168" x2="215" y2="234" stroke="#737270" stroke-width="1.5" marker-end="url(#a)"/>

<!-- Sensors → Express (unauthenticated hardware ingestion) -->
<path d="M760 88 L760 190 L340 190 L340 234" fill="none" stroke="#737270" stroke-width="1.5" marker-end="url(#a)"/>
<text x="768" y="140" font-size="11" fill="#3d3d3d">Sensor data</text>

<!-- ══ EC2 Docker container ══ -->

<rect x="30" y="200" width="840" height="322" rx="16" fill="#f1efe8" stroke="#5f5e5a" stroke-width="0.5"/>
<text x="450" y="222" text-anchor="middle" font-size="13" font-weight="600" fill="#444">AWS EC2 — Docker container</text>

<!-- Express API -->
<rect x="55" y="236" width="330" height="60" rx="8" fill="#e1f5ee" stroke="#0f6e56" stroke-width="0.5"/>
<text x="220" y="259" text-anchor="middle" font-size="14" font-weight="600" fill="#085041">Express API</text>
<text x="220" y="277" text-anchor="middle" font-size="11.5" fill="#0f6e56">JWT · RBAC · tenant scoping · Helmet</text>

<!-- Socket.io -->
<rect x="650" y="236" width="195" height="60" rx="8" fill="#eaf3de" stroke="#3b6d11" stroke-width="0.5"/>
<text x="747" y="259" text-anchor="middle" font-size="14" font-weight="600" fill="#27500a">Socket.io</text>
<text x="747" y="277" text-anchor="middle" font-size="11.5" fill="#3b6d11">Real-time broadcast</text>

<line x1="385" y1="266" x2="648" y2="266" stroke="#737270" stroke-width="1.5" marker-end="url(#a)"/>

<!-- ── Domain layer ── -->
<text x="55" y="322" font-size="11" font-weight="600" fill="#6b6a66" letter-spacing="0.5">DOMAIN MODULES — routes → controllers → MySQL</text>

<rect x="55" y="330" width="122" height="46" rx="6" fill="#eef2f7" stroke="#45607d" stroke-width="0.5"/>
<text x="116" y="349" text-anchor="middle" font-size="12.5" font-weight="600" fill="#2b4560">Missions</text>
<text x="116" y="365" text-anchor="middle" font-size="10.5" fill="#45607d">checklists</text>

<rect x="187" y="330" width="122" height="46" rx="6" fill="#eef2f7" stroke="#45607d" stroke-width="0.5"/>
<text x="248" y="349" text-anchor="middle" font-size="12.5" font-weight="600" fill="#2b4560">Guides</text>
<text x="248" y="365" text-anchor="middle" font-size="10.5" fill="#45607d">approval · ratings</text>

<rect x="319" y="330" width="122" height="46" rx="6" fill="#eef2f7" stroke="#45607d" stroke-width="0.5"/>
<text x="380" y="349" text-anchor="middle" font-size="12.5" font-weight="600" fill="#2b4560">Equipment</text>
<text x="380" y="365" text-anchor="middle" font-size="10.5" fill="#45607d">assets · status</text>

<rect x="451" y="330" width="122" height="46" rx="6" fill="#eef2f7" stroke="#45607d" stroke-width="0.5"/>
<text x="512" y="349" text-anchor="middle" font-size="12.5" font-weight="600" fill="#2b4560">Reports</text>
<text x="512" y="365" text-anchor="middle" font-size="10.5" fill="#45607d">aggregates · CSV</text>

<rect x="583" y="330" width="122" height="46" rx="6" fill="#eef2f7" stroke="#45607d" stroke-width="0.5"/>
<text x="644" y="349" text-anchor="middle" font-size="12.5" font-weight="600" fill="#2b4560">Areas</text>
<text x="644" y="365" text-anchor="middle" font-size="10.5" fill="#45607d">rooms · GPS</text>

<rect x="715" y="330" width="130" height="46" rx="6" fill="#eef2f7" stroke="#45607d" stroke-width="0.5"/>
<text x="780" y="349" text-anchor="middle" font-size="12.5" font-weight="600" fill="#2b4560">Users</text>
<text x="780" y="365" text-anchor="middle" font-size="10.5" fill="#45607d">signup · approval</text>

<line x1="220" y1="296" x2="220" y2="328" stroke="#737270" stroke-width="1.5" marker-end="url(#a)"/>

<!-- ── Service layer ── -->
<text x="55" y="402" font-size="11" font-weight="600" fill="#6b6a66" letter-spacing="0.5">SERVICES</text>

<rect x="55" y="410" width="185" height="56" rx="8" fill="#faeedb" stroke="#854f0b" stroke-width="0.5"/>
<text x="147" y="433" text-anchor="middle" font-size="13.5" font-weight="600" fill="#633806">Scheduler</text>
<text x="147" y="451" text-anchor="middle" font-size="11" fill="#854f0b">node-cron · every 5 s</text>

<rect x="260" y="410" width="185" height="56" rx="8" fill="#faeee7" stroke="#993c1d" stroke-width="0.5"/>
<text x="352" y="433" text-anchor="middle" font-size="13.5" font-weight="600" fill="#712b13">Weather service</text>
<text x="352" y="451" text-anchor="middle" font-size="11" fill="#993c1d">retry · cache fallback</text>

<rect x="465" y="410" width="185" height="56" rx="8" fill="#eeedfe" stroke="#534ab7" stroke-width="0.5"/>
<text x="557" y="433" text-anchor="middle" font-size="13.5" font-weight="600" fill="#3c3489">Decision engine</text>
<text x="557" y="451" text-anchor="middle" font-size="11" fill="#534ab7">60% temp · 40% light</text>

<rect x="670" y="410" width="175" height="56" rx="8" fill="#f3eef7" stroke="#6b4a86" stroke-width="0.5"/>
<text x="757" y="433" text-anchor="middle" font-size="13.5" font-weight="600" fill="#4a3060">Storage · Email</text>
<text x="757" y="451" text-anchor="middle" font-size="11" fill="#6b4a86">S3 SDK · Nodemailer</text>

<line x1="240" y1="438" x2="258" y2="438" stroke="#737270" stroke-width="1.5" marker-end="url(#a)"/>
<line x1="445" y1="438" x2="463" y2="438" stroke="#737270" stroke-width="1.5" marker-end="url(#a)"/>
<line x1="147" y1="410" x2="147" y2="378" stroke="#737270" stroke-width="1.5" marker-end="url(#a)"/>

<!-- Live updates: Socket.io → clients -->
<path d="M845 266 L878 266 L878 12 L360 12 L360 26" fill="none" stroke="#639922" stroke-width="0.8" stroke-dasharray="4 3" marker-end="url(#ag)"/>
<text x="888" y="150" font-size="11" fill="#3d3d3d" text-anchor="middle" transform="rotate(90 888 150)">Live updates</text>

<!-- ══ EC2 → external stores ══ -->

<line x1="150" y1="522" x2="150" y2="558" stroke="#737270" stroke-width="1.5" marker-end="url(#a)"/>
<text x="158" y="544" font-size="11" fill="#3d3d3d">mysql2 pool</text>

<line x1="370" y1="522" x2="370" y2="558" stroke="#737270" stroke-width="1.5" marker-end="url(#a)"/>
<text x="378" y="544" font-size="11" fill="#3d3d3d">uploads</text>

<line x1="590" y1="522" x2="590" y2="558" stroke="#737270" stroke-width="1.5" marker-end="url(#a)"/>
<text x="598" y="544" font-size="11" fill="#3d3d3d">HTTPS</text>

<line x1="785" y1="522" x2="785" y2="558" stroke="#737270" stroke-width="1.5" marker-end="url(#a)"/>
<text x="793" y="544" font-size="11" fill="#3d3d3d">SMTP</text>

<!-- ══ Row 4: External services ══ -->

<rect x="55" y="558" width="190" height="60" rx="8" fill="#e6f1fb" stroke="#185fa5" stroke-width="0.5"/>
<text x="150" y="582" text-anchor="middle" font-size="14" font-weight="600" fill="#0c447c">AWS RDS</text>
<text x="150" y="600" text-anchor="middle" font-size="11.5" fill="#185fa5">MySQL 8.0 · 10 tables</text>

<rect x="275" y="558" width="190" height="60" rx="8" fill="#faeee7" stroke="#993c1d" stroke-width="0.5"/>
<text x="370" y="582" text-anchor="middle" font-size="14" font-weight="600" fill="#712b13">AWS S3</text>
<text x="370" y="600" text-anchor="middle" font-size="11.5" fill="#993c1d">photos · guide media</text>

<rect x="495" y="558" width="190" height="60" rx="8" fill="#eeedfe" stroke="#534ab7" stroke-width="0.5"/>
<text x="590" y="582" text-anchor="middle" font-size="14" font-weight="600" fill="#3c3489">OpenWeatherMap</text>
<text x="590" y="600" text-anchor="middle" font-size="11.5" fill="#534ab7">live conditions</text>

<rect x="715" y="558" width="130" height="60" rx="8" fill="#f0eee8" stroke="#5f5e5a" stroke-width="0.5"/>
<text x="780" y="582" text-anchor="middle" font-size="14" font-weight="600" fill="#333">SMTP</text>
<text x="780" y="600" text-anchor="middle" font-size="11.5" fill="#555">password reset</text>

<!-- Caption -->
<text x="450" y="648" text-anchor="middle" font-size="11" fill="#7a7975">Every request is authenticated, role-checked, and scoped to the caller's company before reaching a controller.</text>

</svg>
